<?xml version="1.0" encoding="utf-8"?>
<svg viewBox="0 0 100 100" width="100" height="100" version="1.1" xmlns="http://www.w3.org/2000/svg">
  <path d="M 16.301 0 C 7.322 0 0 7.322 0 16.301 L 0 83.699 C 0 92.678 7.322 100 16.301 100 L 83.699 100 C 92.678 100 100 92.678 100 83.699 L 100 16.301 C 100 7.322 92.678 0 83.699 0 L 16.301 0 Z M 16.301 6 L 83.699 6 C 89.457 6 94 10.543 94 16.301 L 94 83.699 C 94 88.22 91.193 91.981 87.203 93.393 C 84.197 94.067 82.319 93.3 80.738 90.609 L 63.994 57.619 C 62.999 55.63 60.016 55.63 59.021 57.619 L 53.551 68.561 C 52.556 70.55 49.571 70.55 48.576 68.561 L 32.66 36.73 C 31.665 34.741 28.682 34.741 27.688 36.73 L 6 80.236 L 6 16.301 C 6 10.543 10.543 6 16.301 6 Z M 72.854 16.648 C 67.725 16.648 63.568 20.805 63.568 25.934 C 63.569 31.061 67.726 35.217 72.854 35.217 C 77.98 35.216 82.136 31.06 82.137 25.934 C 82.137 20.806 77.981 16.649 72.854 16.648 Z"/>
</svg>
