<?xml version="1.0" encoding="UTF-8"?>
<svg version="1.1" viewBox="0 0 100 100" xmlns="http://www.w3.org/2000/svg">
    <path d="m16.301 0c-8.979 0-16.301 7.322-16.301 16.301v67.398c0 8.979 7.322 16.301 16.301 16.301h67.398c8.979 0 16.301-7.322 16.301-16.301v-67.398c0-8.979-7.322-16.301-16.301-16.301h-67.398zm0 6h67.398c5.758 0 10.301 4.543 10.301 10.301v67.398c0 4.521-2.807 8.282-6.797 9.694-3.006 0.674-4.884-0.093-6.465-2.784l-16.744-32.99c-0.995-1.989-3.978-1.989-4.973 0l-5.47 10.942c-0.995 1.989-3.98 1.989-4.975 0l-15.916-31.831c-0.995-1.989-3.978-1.989-4.972 0l-21.688 43.506v-63.935c0-5.758 4.543-10.301 10.301-10.301zm56.553 10.648c-5.129 0-9.286 4.157-9.286 9.286 1e-3 5.127 4.158 9.283 9.286 9.283 5.126-1e-3 9.282-4.157 9.283-9.283 0-5.128-4.156-9.285-9.283-9.286z"/>
</svg>
