<?xml version="1.0" encoding="utf-8"?>
<svg width="100" height="60" version="1.1" viewBox="0 0 100 60" xmlns="http://www.w3.org/2000/svg">
  <path d="M 4.647 1.191 C 3.368 1.191 2.237 1.798 1.407 2.668 C -0.469 4.636 -0.469 7.79 1.407 9.761 L 46.76 57.332 C 47.592 58.206 48.72 58.81 50 58.81 C 51.281 58.81 52.408 58.204 53.24 57.332 L 98.593 9.761 C 100.469 7.79 100.469 4.638 98.593 2.668 C 96.849 0.838 94.339 0.97 92.255 2.668 C 75.562 16.273 65.726 24.523 50 36.705 C 34.791 24.561 21.647 13.89 7.398 2.278 C 6.461 1.514 5.88 1.19 4.647 1.19 Z"/>
</svg>
