<?xml version="1.0" encoding="utf-8"?>
<svg width="100" height="60" version="1.1" viewBox="0 0 100 60" xmlns="http://www.w3.org/2000/svg">
  <path d="M 4.539 0.705 L 4.539 0.974 C 3.435 1.245 2.43 1.744 1.698 2.511 C -0.566 4.885 -0.566 8.675 1.697 11.051 L 1.698 11.051 L 45.989 57.489 C 46.98 58.53 48.383 59.295 50 59.295 C 51.62 59.295 53.021 58.527 54.011 57.489 L 98.302 11.051 L 98.304 11.051 C 100.566 8.675 100.565 4.886 98.302 2.511 C 97.247 1.404 95.857 0.835 94.466 0.856 C 93.075 0.877 91.708 1.447 90.524 2.412 C 74.508 15.459 64.876 23.508 50.006 35.045 C 35.485 23.449 22.809 13.167 9.137 2.031 C 8.164 1.237 7.119 0.705 5.71 0.705 Z M 5.71 3.049 C 6.709 3.049 6.801 3.149 7.657 3.847 C 21.573 15.183 34.413 25.602 49.27 37.46 L 49.989 38.036 L 50.717 37.472 C 66.09 25.568 75.709 17.503 92.006 4.227 L 92.006 4.227 C 92.856 3.534 93.731 3.209 94.5 3.197 C 95.269 3.186 95.958 3.446 96.606 4.126 C 98.008 5.596 98.006 7.962 96.604 9.434 L 96.606 9.434 L 52.316 55.87 C 51.682 56.535 50.882 56.949 50 56.949 C 49.118 56.949 48.32 56.536 47.687 55.87 L 47.685 55.87 L 3.394 9.434 L 3.396 9.434 C 1.995 7.962 1.993 5.594 3.394 4.126 C 4.025 3.464 4.831 3.047 5.71 3.047 Z"/>
</svg>
