<?xml version="1.0" encoding="utf-8"?>
<svg height="78.581253" width="100" version="1.1" viewBox="0 0 100 78.581253" xmlns="http://www.w3.org/2000/svg">
  <path d="M 8.938 0 C 6.071 0 3.866 0.967 2.324 2.9 C 0.783 4.833 0.012 7.252 0.012 10.156 C 0.012 12.498 1.036 15.037 3.082 17.775 C 5.124 20.508 7.297 22.656 9.605 24.218 C 19.99 31.53 32.252 40.128 43.943 48 C 45.077 48.666 46.146 49.168 47.15 49.505 C 48.155 49.843 49.083 50.011 49.938 50.011 L 50.051 50.011 C 50.905 50.007 51.834 49.839 52.838 49.505 C 53.842 49.172 54.91 48.67 56.043 48 C 67.263 40.713 78.109 33.368 90.443 24.224 C 93.156 22.328 95.425 20.042 97.25 17.363 C 99.075 14.684 99.988 11.875 99.988 8.937 L 99.963 8.931 C 99.963 6.469 99.079 4.365 97.313 2.619 C 95.567 0.873 93.483 0 91.063 0 Z M 0 25.343 L 0 69.65 C -0.004 72.112 0.869 74.217 2.619 75.962 C 4.373 77.708 6.477 78.582 8.932 78.582 L 91.057 78.582 C 93.519 78.586 95.623 77.712 97.369 75.962 C 99.115 74.208 99.988 72.104 99.988 69.65 L 99.988 25.353 C 79.21 41.069 70.682 47.122 56.193 55.787 C 53.998 56.699 51.952 57.156 50.057 57.156 L 49.943 57.156 C 48.048 57.156 46.002 56.699 43.807 55.787 C 29.696 47.981 15.239 36.54 0 25.343 Z M 99.988 25.353 C 99.993 25.35 99.996 25.347 100 25.343 L 99.988 25.343 Z"/>
</svg>
