<?xml version="1.0" encoding="utf-8"?>
<svg height="100" width="100" version="1.1" viewBox="0 0 100 100" xmlns="http://www.w3.org/2000/svg">
  <path d="M 50 0 C 22.381 0 0 22.387 0 50 C 0 77.619 22.388 100 50 100 C 77.619 100 100 77.612 100 50 C 100 22.381 77.612 0 50 0 M 9.375 50 C 9.375 27.563 27.563 9.375 50 9.375 C 60.7 9.375 70.431 13.519 77.688 20.275 L 37.5 37.5 L 20.275 77.688 C 13.512 70.431 9.375 60.7 9.375 50 M 57.144 57.144 L 32.144 67.862 L 42.862 42.863 L 57.156 57.156 M 50.013 90.637 C 39.313 90.637 29.575 86.5 22.325 79.737 L 62.513 62.513 L 79.737 22.325 C 86.5 29.581 90.637 39.313 90.637 50.013 C 90.637 72.45 72.45 90.637 50.013 90.637"/>
</svg>
