<svg version="1.1" viewBox="0 0 100 100" xmlns="http://www.w3.org/2000/svg">
 <path d="m18.324 17.449c-1.187 0.825-2.376 1.649-3.563 2.477-1.408-2.135-2.815-4.268-4.225-6.403-0.059 0.043-0.02 3e-3 -0.061 0.062-1.437 2.112-2.877 4.228-4.317 6.341-1.155-0.835-2.314-1.674-3.472-2.508 0.031-0.03 0.061-0.058 0.092-0.09 1.548-2.013 3.099-4.024 4.648-6.037v-0.032c-2.473-0.673-4.95-1.346-7.426-2.023 0.443-1.375 0.885-2.758 1.329-4.135 2.436 0.877 4.87 1.752 7.305 2.626-0.121-2.573-0.241-5.15-0.362-7.727h4.376c-0.108 2.577-0.219 5.154-0.33 7.727 2.443-0.863 4.891-1.73 7.333-2.595 0.433 1.369 0.868 2.736 1.301 4.104-2.477 0.687-4.953 1.372-7.429 2.055 1.601 2.051 3.203 4.107 4.801 6.158z" style="fill:#999;"/>
</svg>
