<?xml version="1.0" encoding="utf-8"?>
<svg id="svg4260" viewBox="0 0 100 100" xmlns="http://www.w3.org/2000/svg">
  <defs id="defs4254">
    <pattern id="pattern-0" x="0" y="0" width="20" height="20" patternUnits="userSpaceOnUse" viewBox="0 0 100 100">
      <path d="M 0 0 L 50 0 L 50 100 L 0 100 Z" style="fill: black;"/>
    </pattern>
  </defs>
  <path d="M 18.324 17.449 C 17.137 18.274 15.948 19.098 14.761 19.926 C 13.353 17.791 11.946 15.658 10.536 13.523 C 10.477 13.566 10.516 13.526 10.475 13.585 C 9.038 15.697 7.598 17.813 6.158 19.926 C 5.003 19.091 3.844 18.252 2.686 17.418 C 2.717 17.388 2.747 17.36 2.778 17.328 C 4.326 15.315 5.877 13.304 7.426 11.291 C 7.426 11.279 7.426 11.269 7.426 11.259 C 4.953 10.586 2.476 9.913 0 9.236 C 0.443 7.861 0.885 6.478 1.329 5.101 C 3.765 5.978 6.199 6.853 8.634 7.727 C 8.513 5.154 8.393 2.577 8.272 0 C 9.728 0 11.19 0 12.648 0 C 12.54 2.577 12.429 5.154 12.318 7.727 C 14.761 6.864 17.209 5.997 19.651 5.132 C 20.084 6.501 20.519 7.868 20.952 9.236 C 18.475 9.923 15.999 10.608 13.523 11.291 C 15.124 13.342 16.726 15.398 18.324 17.449 Z" id="path2" style="fill-opacity: 1; stroke-width: 0; fill: rgb(80, 80, 80);"/>
</svg>