<?xml version="1.0" encoding="utf-8"?>
<svg height="100" width="100" version="1.1" viewBox="0 0 100 100" xmlns="http://www.w3.org/2000/svg">
  <path d="M 0 0 L 0 100 C 26.239 100 100 100 100 100 C 99.892 73.761 99.996 0 99.996 0 M 55.986 78.531 C 50.921 78.531 46.158 75.9 44.527 72.791 C 44.527 72.791 42.021 82.338 41.412 84.675 C 40.283 89.019 37.237 94.463 35.196 97.784 L 31.781 96.575 C 31.343 92.619 30.949 86.55 31.952 82.231 C 32.862 78.328 37.815 57.378 37.815 57.378 C 37.815 57.378 36.318 54.384 36.318 49.956 C 36.318 43.003 40.349 37.813 45.364 37.813 C 49.63 37.813 51.692 41.016 51.692 44.856 C 51.692 49.147 48.961 55.559 47.552 61.503 C 46.374 66.481 50.049 70.541 54.955 70.541 C 63.842 70.541 70.673 61.169 70.673 47.644 C 70.673 35.672 62.07 27.303 49.789 27.303 C 35.565 27.303 27.212 37.975 27.212 49 C 27.212 53.297 28.868 57.906 30.934 60.409 C 31.343 60.903 31.403 61.338 31.281 61.844 C 30.903 63.425 30.059 66.822 29.893 67.516 C 29.674 68.431 29.168 68.625 28.221 68.184 C 21.978 65.278 18.072 56.147 18.072 48.816 C 18.072 33.034 29.531 18.559 51.108 18.559 C 68.451 18.559 81.932 30.919 81.932 47.438 C 81.932 64.669 71.067 78.537 55.989 78.537 Z"/>
</svg>
