<?xml version="1.0" encoding="utf-8"?>
<svg height="100" width="100" version="1.1" viewBox="0 0 100 100" xmlns="http://www.w3.org/2000/svg">
  <path d="M 6.555 3.73 C 10.558 -0.27 22.65 -0.939 22.744 1.18 C 22.832 3.292 33.639 26.769 33.733 28.882 C 33.827 31.001 26.616 38.214 24.504 40.326 C 22.412 42.414 38.62 60.734 38.927 61.078 C 39.271 61.384 57.591 77.592 59.677 75.498 C 61.788 73.385 69.006 66.172 71.117 66.266 C 73.235 66.353 96.71 77.161 98.822 77.254 C 100.939 77.342 100.269 89.437 96.272 93.443 C 92.851 96.862 75.133 109.282 44.321 87.105 C 40.944 85.161 35.594 80.705 27.474 72.591 C 27.474 72.585 27.462 72.579 27.455 72.579 C 27.449 72.566 27.443 72.566 27.437 72.56 C 27.43 72.554 27.424 72.548 27.418 72.541 C 27.418 72.535 27.405 72.529 27.405 72.529 C 19.298 64.416 14.812 59.059 12.895 55.684 C -9.283 24.869 3.14 7.149 6.555 3.73"/>
</svg>
