<?xml version="1.0" encoding="utf-8"?>
<svg height="100" width="100" version="1.1" viewBox="0 0 100 100" xmlns="http://www.w3.org/2000/svg">
  <path d="M 0 0 C 0 19.981 0 100 0 100 C 26.223 100 100 100 100 100 C 100 73.777 100 0 100 0 M 37.5 81.25 L 25 81.25 L 25 37.5 L 37.5 37.5 L 37.5 81.25 M 31.25 31.25 C 27.797 31.25 25 28.453 25 25 C 25 21.547 27.797 18.75 31.25 18.75 C 34.703 18.75 37.5 21.547 37.5 25 C 37.5 28.453 34.703 31.25 31.25 31.25 M 81.25 81.25 L 68.75 81.25 L 68.75 56.25 C 68.75 52.797 65.953 50 62.5 50 C 59.047 50 56.25 52.797 56.25 56.25 L 56.25 81.25 L 43.75 81.25 L 43.75 37.5 L 56.25 37.5 L 56.25 45.259 C 58.828 41.719 62.769 37.5 67.188 37.5 C 74.953 37.5 81.25 44.497 81.25 53.125 L 81.25 81.25"/>
</svg>
