<?xml version="1.0" encoding="utf-8"?>
<svg height="100" width="100" version="1.1" viewBox="0 0 100 100" xmlns="http://www.w3.org/2000/svg">
  <path d="M 23.077 55.167 C 32.044 55.435 38.06 46.123 36.513 34.371 C 34.966 22.618 26.436 13.185 17.469 12.916 C 8.5 12.651 2.487 21.644 4.034 33.4 C 5.58 45.153 14.107 54.898 23.077 55.167 M 100 25.009 L 99.983 0.009 L 0.006 0 C 0.006 0 0 7.376 0 16.246 C 5.689 11.233 13.677 7.023 21.82 7.023 L 56.639 7.023 L 48.848 13.619 L 37.807 13.619 C 45.13 16.428 49.032 24.947 49.032 33.687 C 49.032 41.026 44.955 47.341 39.198 51.83 C 33.581 56.209 32.515 58.045 32.515 61.769 C 32.515 64.947 38.534 70.353 41.678 72.576 C 50.875 79.065 53.853 85.093 53.853 95.154 C 53.853 96.755 53.678 98.418 53.285 99.991 C 68.85 100 99.98 99.996 99.98 99.996 L 99.997 31.258 L 81.174 31.258 L 81.174 49.988 L 74.937 49.988 L 74.937 31.258 L 56.224 31.258 L 56.224 25.015 L 74.937 25.015 L 74.937 6.286 L 81.174 6.286 L 81.174 25.015 Z M 18.209 74.754 C 20.314 74.754 22.244 74.698 24.247 74.698 C 21.602 72.129 19.506 68.983 19.506 65.103 C 19.506 62.799 20.242 60.583 21.274 58.613 C 20.223 58.688 19.15 58.71 18.046 58.71 C 10.798 58.71 4.645 56.362 0.094 52.482 C 0 61.236 0 69.99 0.021 78.743 C 5.23 76.268 11.488 74.758 18.212 74.758 Z M 44.494 92.984 C 43.025 87.247 37.823 84.403 30.568 79.371 C 27.93 78.519 25.023 78.017 21.904 77.985 C 13.169 77.892 4.601 81.843 0.01 87.056 C 0 94.767 0.025 100 0.025 100 L 44.619 99.988 C 44.797 98.902 44.918 97.72 44.918 96.568 C 44.918 95.344 44.768 94.149 44.491 92.984 Z"/>
</svg>
