<?xml version="1.0" encoding="utf-8"?>
<svg height="100" width="100" version="1.1" viewBox="0 0 100 100" xmlns="http://www.w3.org/2000/svg">
  <path d="M 0 0 L 0 100 L 100 100 L 100 0 M 74.854 37.253 C 74.879 37.803 74.891 38.356 74.891 38.912 C 74.891 55.856 61.996 75.397 38.412 75.397 C 31.173 75.397 24.433 73.275 18.759 69.634 C 19.762 69.753 20.784 69.816 21.818 69.816 C 27.823 69.816 33.354 67.766 37.741 64.325 C 32.129 64.222 27.395 60.516 25.764 55.422 C 26.548 55.572 27.351 55.653 28.176 55.653 C 29.345 55.653 30.479 55.497 31.554 55.203 C 25.689 54.025 21.271 48.844 21.271 42.641 C 21.271 42.587 21.271 42.534 21.271 42.478 C 22.999 43.438 24.977 44.016 27.077 44.081 C 23.636 41.781 21.374 37.856 21.374 33.409 C 21.374 31.059 22.005 28.856 23.111 26.962 C 29.436 34.719 38.89 39.825 49.536 40.359 C 49.317 39.422 49.204 38.441 49.204 37.438 C 49.204 30.356 54.944 24.616 62.024 24.616 C 65.711 24.616 69.045 26.172 71.382 28.666 C 74.304 28.091 77.047 27.025 79.525 25.553 C 78.569 28.547 76.535 31.059 73.888 32.647 C 76.482 32.338 78.953 31.647 81.253 30.628 C 79.534 33.2 77.363 35.456 74.857 37.266 Z"/>
</svg>
